<?xml version="1.0" encoding="utf-8"?>
<!-- Generator: Adobe Illustrator 17.1.0, SVG Export Plug-In . SVG Version: 6.00 Build 0)  -->
<!-- https://css-tricks.com/a-complete-guide-to-svg-fallbacks/ -->
<!DOCTYPE svg PUBLIC "-//W3C//DTD SVG 1.1//EN" "http://www.w3.org/Graphics/SVG/1.1/DTD/svg11.dtd">
<svg version="1.1" id="Layer_1" xmlns="http://www.w3.org/2000/svg" xmlns:xlink="http://www.w3.org/1999/xlink" x="0px" y="0px"
	 width="792.9px" height="725.2px" viewBox="0 0 792.9 725.2" enable-background="new 0 0 792.9 725.2" xml:space="preserve">
	 <style>
	 	.color:hover {
	 		fill:red;
	 	}

	 	.color {
			fill:#008AAB;
	 	}

	 	.black {
	 		fill: #111414;
	 	}
	 	
	 </style>
<g>
	<path class="color" d="M387.7,240C387.7,240.1,387.7,240.1,387.7,240L387.7,240z"/>
	<polygon class="color" points="259.9,399.6 260,399.6 259.9,399.1 	"/>
	<path class="black" d="M534.2,478.8c7-4.7,12.9-9.3,17.7-13.9c4.8-4.6,8.7-9.3,11.8-14.2c3.1-4.9,5.3-10,6.7-15.4
		c1.4-5.4,2.1-11.3,2.1-17.7c0-8.5-1.6-16.3-4.7-23.4c-3.1-7.1-7.7-13.3-13.6-18.5c-6-5.2-13.5-9.2-22.4-12.1
		c-9-2.9-19.2-4.3-30.6-4.3c-14,0-26.8,2.9-38.4,8.6c-10.3,5.1-19.5,11-27.6,17.6l20.1,30.8c5.7-5.3,12.2-10.1,19.4-14.3
		c7.2-4.2,14.8-6.4,22.6-6.4c10,0,17.7,2,23.1,5.9c5.4,3.9,8.1,9.6,8.1,17c0,4.7-1.2,9.1-3.5,13.2c-2.3,4.1-5.7,8.3-10,12.4
		c-4.4,4.1-9.6,8.4-15.8,12.9c-6.2,4.5-13.1,9.2-20.7,14.3l-28.6,19.2c7.3,1.3,14.2,3.2,20.7,5.7c2.4,0.9,2.4,0.9,2.4,0.9
		c6.4,10.8,9.8,24.3,9.8,32.3c0,1.6-0.1,3.1-0.2,4.6H574v-37.3h-66.2L534.2,478.8z"/>
	<path class="color" d="M500.5,407.9c2.2-3.6,5-6.9,8-10.5c0.2-0.2,0.4-0.4,0.6-0.7c-2.1-0.4-4.3-0.8-6.7-0.9
		c-1.8,2.2-3.6,4.4-5.2,6.8l-4.3-6.7c-0.4,0-0.9,0.1-1.3,0.2c-0.2,0-0.4,0.1-0.7,0.1c-0.2,0-0.4,0.1-0.6,0.1c-0.3,0-0.5,0.1-0.8,0.1
		c-0.2,0-0.3,0.1-0.5,0.1c-0.3,0.1-0.6,0.1-0.8,0.2c-3.1,0.7-6.2,1.7-9.2,3.1c-0.2,0.1-0.4,0.2-0.6,0.3c-0.2,0.1-0.5,0.2-0.7,0.3
		c-0.2,0.1-0.4,0.2-0.5,0.3c-0.3,0.1-0.5,0.3-0.8,0.4c-0.1,0.1-0.3,0.2-0.4,0.2c-0.4,0.2-0.8,0.5-1.2,0.7c-0.6,0.3-1.2,0.7-1.7,1
		c-0.1,0.1-0.3,0.2-0.4,0.3c-0.5,0.3-1,0.6-1.5,1c-0.1,0-0.1,0.1-0.2,0.1c-0.6,0.4-1.2,0.7-1.7,1.1c-0.1,0.1-0.2,0.1-0.2,0.2
		c-0.5,0.4-1.1,0.7-1.6,1.1c0,0-0.1,0.1-0.1,0.1c-1.2,0.8-2.3,1.7-3.5,2.5c0,0,0,0,0,0c-1.1,0.9-2.3,1.7-3.4,2.6
		c-1.7,1.4-3.4,2.9-5,4.3l-1.3-2l0,0c-0.6,3.3-0.9,6.8-0.9,10.6l0,0.2c1.2,14,5.2,27.4,11.5,38.8c-3.3-2-6.8-3.7-10.4-5.2
		c-9.3-3.7-19.1-5.6-29.2-5.6c-16.6,0-27.9,6-37.3,12.7v7.1c9.7-7.3,20.3-14.1,37.3-14.1c17.4,0,34.1,6.1,46.7,17.1l5.1-3.5
		c-10.7-13.3-16.6-30.6-18.1-47.8c0-1,0-2,0.1-2.9l8.9,13.7h5.1c2.1,13.4,8,23.2,14.2,30.1c1.6-1.1,3.2-2.2,4.7-3.3
		c-5.7-6.1-11.1-14.8-13.2-26.8h12.8c2.3,8.8,7.3,14.8,11.7,18.7c1.6-1.2,3.2-2.4,4.6-3.6c-4.5-3.7-8.3-8.7-10.3-15h20.9
		L500.5,407.9z"/>
	<path class="color" d="M685.7,268.8c-7.3-7.5-17.3-11.7-28.1-11.7c-14,0-20.8,5.7-27.4,11.3c-6.1,5.1-11.9,10-23.9,10
		c-18.8,0-33.5-14.7-33.5-33.5c0-14.2,7-23.4,14.4-33.1c8.3-10.9,17.7-23.2,17.7-44c0-11.3-2.1-21.9-6.3-31.6
		c-3.9-9.1-9.6-17.2-16.8-23.9c-7-6.5-15.1-11.6-24.2-15.1c-9-3.5-18.6-5.3-28.4-5.3c-20.8,0-33.1,9.4-44,17.7
		c-9.7,7.4-18.9,14.4-33.1,14.4c-18.8,0-33.5-14.7-33.5-33.5c0-12,4.9-17.8,10-23.9c5.6-6.6,11.3-13.4,11.3-27.4
		c0-10.8-4.1-20.8-11.7-28.1C420.8,3.9,411,0,400.6,0c-10.4,0-20.2,3.9-27.6,11.1c-7.5,7.3-11.7,17.3-11.7,28.1
		c0,14,5.7,20.8,11.3,27.4c5.1,6.1,10,11.9,10,23.9c0,18.8-14.7,33.5-33.5,33.5c-14.2,0-23.4-7-33.1-14.4
		c-10.9-8.3-23.2-17.7-44-17.7c-9.8,0-19.4,1.8-28.4,5.3c-9.1,3.5-17.2,8.6-24.2,15.1c-7.2,6.8-12.9,14.8-16.8,23.9
		c-4.2,9.7-6.3,20.3-6.3,31.6c0,11.3,2.1,21.9,6.3,31.5c1,2.3,2.1,4.6,3.4,6.8c-2.2-1.2-4.4-2.3-6.7-3.3c-9.7-4.2-20.3-6.3-31.5-6.3
		c-11.3,0-21.9,2.1-31.6,6.3c-9.1,3.9-17.2,9.6-23.9,16.8c-6.5,6.9-11.6,15.1-15.1,24.1c-3.5,9-5.3,18.6-5.3,28.4
		c0,17.3,6.5,28.7,13.5,38.4l-26.9,70.2c-4.8-1.9-8.3-4.9-12-7.9c-6.6-5.6-13.4-11.3-27.4-11.3c-10.8,0-20.8,4.1-28.1,11.7
		C3.9,380.6,0,390.4,0,400.8c0,10.4,3.9,20.2,11.1,27.6c7.3,7.5,17.3,11.7,28.1,11.7c9.5,0,15.7-2.7,20.8-6.1h44l3.8-10.5
		c9.8,5.8,16.3,16.4,16.3,28.9c0,14.2-7,23.4-14.4,33.1c-2.4,3.2-4.9,6.5-7.3,10.1l-22.7,0v38.7h12.5c0.5,8.1,2.2,16,5.1,23.6
		c3.5,9.1,8.6,17.2,15.1,24.2c6.8,7.2,14.8,12.9,23.9,16.8c3.7,1.6,7.5,2.9,11.5,3.9v117.4h43.9V600.1c7.9-3.5,14.2-8.3,20.1-12.8
		c9.7-7.4,18.9-14.4,33.1-14.4c18.8,0,33.5,14.7,33.5,33.5c0,12-4.9,17.8-10,23.9c-5.6,6.6-11.3,13.4-11.3,27.4
		c0,10.8,4.1,20.8,11.7,28.1c7.3,7.2,17.1,11.1,27.6,11.1c10.4,0,20.2-3.9,27.6-11.1c7.5-7.3,11.7-17.3,11.7-28.1
		c0-14-5.7-20.8-11.3-27.4c-5.1-6.1-10-11.9-10-23.9c0-17.2,12.3-31,28.8-33.2c0.8,2.9,1.8,5.6,3.1,8.1c3.6,7.3,8.5,13.5,14.6,18.6
		c6.1,5.1,13.2,9.3,21.3,12.7c8,3.4,16.5,6.5,25.4,9.2c9.5,3,17.6,5.8,24.3,8.6c6.7,2.8,12.1,5.7,16.2,8.7c4.1,3.1,7.1,6.5,9,10.2
		c1.9,3.7,2.9,7.9,2.9,12.5c0,7.8-3.6,14.1-10.8,18.9c-7.2,4.8-17.1,7.1-29.8,7.1c-12.1,0-23.8-2.5-35.2-7.5
		c-11-4.8-21-10.6-30.2-17.4c-1.2,14.3-7,27.5-16.8,37.7c10.2,7.1,21.4,12.8,33.7,17.1c14.4,5,29.8,7.5,46.3,7.5
		c12.7,0,24.4-1.4,35.2-4.1c10.8-2.7,20-6.9,27.8-12.4c7.7-5.5,13.8-12.5,18.2-21.1c4.4-8.6,6.7-18.8,6.7-30.6
		c0-11.6-2.3-21.5-6.8-29.7c-4.6-8.1-10.3-15-17.3-20.5c-5.6-4.4-11.8-8.2-18.4-11.4c5.5-3,10.5-6.6,15.1-10.9
		c7.2-6.8,12.9-14.8,16.8-23.9c3.5-8.2,5.6-17.1,6.1-26.5h-5.7c-1.8,28.9-18.4,48.7-39.2,58.3c0,0,0,0,0,0c-0.4,0.2-0.9,0.4-1.3,0.6
		c-0.1,0-0.2,0.1-0.3,0.1c-6.4-2.6-12.7-5-18.8-6.9c17.6-2.7,28.5-12.2,34.8-20.4c5.2-6.8,8.6-14.3,10.5-21.2c0,0,0,0,0,0
		c0.1-0.3,0.2-0.7,0.3-1c0,0,0-0.1,0-0.1c0.1-0.3,0.2-0.6,0.2-0.9c0,0,0-0.1,0-0.1c0.1-0.3,0.2-0.6,0.2-0.9c0,0,0-0.1,0-0.1
		c0.1-0.3,0.1-0.6,0.2-0.9c0,0,0,0,0,0c0.3-1.6,0.6-3.2,0.8-4.6c0-0.1,0-0.2,0-0.3c0-0.2,0.1-0.4,0.1-0.6c0-0.1,0-0.2,0-0.4
		c0-0.2,0-0.3,0-0.5h0c0.1-0.7,0.1-1.4,0.2-2.2c0-0.1,0-0.1,0-0.2c0-0.3,0-0.5,0-0.8c0-0.1,0-0.2,0-0.3c0-0.1,0-0.1,0-0.2
		c0-0.3,0-0.7,0-1c0-7.5-3-19.7-8.5-30c0,0-0.8-1.5-1.3-2.3l-2.4-0.9c-3.2-1.2-6.4-2.3-9.8-3.3c-0.3-0.1-0.7-0.2-1-0.3
		c-0.5-0.1-0.9-0.2-1.4-0.4c-0.4-0.1-0.7-0.2-1.1-0.3c-0.5-0.1-0.9-0.2-1.4-0.3c-0.3-0.1-0.7-0.2-1-0.2c-0.5-0.1-1.1-0.2-1.6-0.3
		c-0.3-0.1-0.6-0.1-0.9-0.2c-0.8-0.2-1.6-0.3-2.4-0.4c-7.3-1.3-15-1.9-23.1-1.9c-13.8,0-26,1.6-36.7,4.8c-0.2,0.1-0.4,0.1-0.6,0.2
		c0.5-0.4,1.1-0.9,1.6-1.3c9.3-7.5,18.2-14.6,33.9-14.6c13.3,0,23.1,4,30.2,9.1l5-3.4c-8-6.3-19.4-11.4-35.3-11.4
		c-17.7,0-27.7,8-37.4,15.7v6.4c-9.6,3.1-17.8,7.3-24.5,12.6c-0.7,0.5-1.4,1.1-2.1,1.7c-0.9,0.7-1.7,1.5-2.5,2.3c0,0,0,0,0,0
		c-0.8,0.8-1.6,1.6-2.3,2.4c0,0,0,0-0.1,0.1c-0.7,0.8-1.4,1.6-2.1,2.4c0,0-0.1,0.1-0.1,0.1c-0.7,0.8-1.3,1.7-1.9,2.5
		c0,0.1-0.1,0.1-0.1,0.2c-0.6,0.8-1.2,1.7-1.8,2.6c0,0.1-0.1,0.1-0.1,0.2c-0.2,0.3-0.4,0.6-0.5,0.9c-1.1,1.8-2.1,3.6-3,5.5
		c-0.2,0.3-0.3,0.7-0.5,1c-0.1,0.2-0.2,0.5-0.3,0.7c-0.2,0.6-0.5,1.1-0.7,1.7c-0.2,0-0.4,0-0.5,0c-18,0.8-34.9,7.8-48.1,20.1
		c-6.6-6.1-14.8-11.1-23.9-14.7c-4.1-1.6-8.4-2.9-12.6-3.8v-6.2c13.6-2.7,26.2-9.2,36.6-18.9c13,12.1,29.6,19.1,47.3,20.1l0-5.7
		c-17.1-1-33.1-8.1-45.3-20.4l-2-2l-2,2c-9.7,9.7-21.6,16.2-34.6,19v-12.8c9.7-2.6,18.5-7.6,25.8-14.9c4.5-4.5,8.1-9.6,10.9-15.1
		c2.8,5.6,6.4,10.7,10.9,15.1c9.3,9.3,23.2,15.5,36.4,16.6l0-5.7c-9.7-0.9-22.7-5.2-32.4-14.9c-5.5-5.5-9.7-12.1-12.2-19.4l-2.7-7.7
		l-2.7,7.7c-2.6,7.3-6.7,13.9-12.2,19.4c-6.2,6.2-13.6,10.6-21.8,13v-6.6H216v-0.2c-1.3-0.8-2.5-1.7-3.8-2.7
		c-8.6-6.6-18.9-19-18.9-40.3c0-13.8,5.4-26.8,15.1-36.6c2.3-2.3,4.8-4.4,7.5-6.2v-6.8v-3.9v-4.9v-18.1v-9.7v-34.8v-11v-8.6h6.4h7.1
		c7.3-9.8,14.3-21.5,14.3-39.4c0-9.8-1.8-19.4-5.3-28.4c-1.4-3.5-3-6.9-4.8-10.1c3.2,1.8,6.5,3.4,10,4.7c9,3.5,18.6,5.3,28.4,5.3
		c20.8,0,33.1-9.4,44-17.7c8.4-6.4,16.5-12.6,27.8-14.1v223.6h0.1h43.8h0v-87.7h22.9l24.6,37.7c8-6.6,17.2-12.5,27.6-17.6
		c0.4-0.2,0.8-0.4,1.1-0.6c0.1,0,0.2-0.1,0.3-0.1c0.3-0.1,0.6-0.3,0.9-0.4c0.1,0,0.2-0.1,0.3-0.1c0.3-0.1,0.6-0.3,0.9-0.4
		c0.1,0,0.2-0.1,0.3-0.1c0.3-0.1,0.6-0.3,0.9-0.4c0.1,0,0.2-0.1,0.2-0.1c0.3-0.1,0.7-0.3,1-0.4c0.1,0,0.1,0,0.2-0.1
		c0.4-0.1,0.7-0.3,1.1-0.4c0,0,0.1,0,0.1,0c0.4-0.1,0.8-0.3,1.1-0.4c0,0,0,0,0,0c0.4-0.1,0.8-0.3,1.2-0.4l-14.1-22.1
		c5.5-2.1,10.8-4.8,16-7.9c2-1.2,3.9-2.6,5.8-4.1c3.2,5.2,5.1,11.3,5.1,18c0,4.9-0.8,9.3-2.3,13.2c2.1-0.4,4.2-0.8,6.3-1
		c1-3.7,1.7-7.7,1.7-12.2c0-8-2.3-15.6-6.5-21.9c1.3-1.3,2.6-2.8,3.9-4.3c1.6-1.9,3-3.9,4.3-6c8.4,10.6,11.4,23.6,11.4,32.3
		c0,4.2-0.4,8-1,11.4c1.9,0,3.9,0.1,5.7,0.2c0.6-3.5,1-7.4,1-11.6c0-13.1-5.5-27.5-14.2-37.7c1-2.1,1.9-4.2,2.7-6.5
		c0.8-2.1,1.4-4.3,1.9-6.6l1.4,1.4c13.2,13.2,20.5,30.8,20.5,49.4c0,4.9-0.4,9.2-1,13.1c1.9,0.3,3.8,0.7,5.6,1.2
		c0.7-4.3,1.1-9,1.1-14.3c0-19.2-7.2-37.4-20.2-51.4c13.2-14.1,20.3-32.3,20.3-51.5c0-9.8-1.8-19.4-5.2-28.4
		c-3.5-9.1-8.6-17.2-15.1-24.1c-6.8-7.2-14.8-12.8-23.9-16.8c-9.6-4.2-20.3-6.3-31.5-6.3c-8.7,0-18.5,2-27.6,5.5
		c-9.1,3.6-17.3,8.6-23.9,14.7c-14-13.1-32.2-20.2-51.5-20.2c-26.7,0-38.8,10.2-49.5,19.2c-8.1,6.8-15.2,12.8-27.6,12.8
		c-23,0-33.6-20-33.6-33.5c0-13.5,10.7-33.5,33.6-33.5c12.4,0,19.4,5.9,27.6,12.8c10.7,9,22.8,19.2,49.5,19.2
		c19.3,0,37.5-7.2,51.5-20.2c6.6,6.1,14.8,11.1,23.9,14.7c9.1,3.6,18.9,5.5,27.6,5.5c26.7,0,38.8-10.2,49.5-19.2
		c8.1-6.8,15.2-12.8,27.6-12.8c23,0,33.6,20,33.6,33.5c0,12.4-5.9,19.4-12.8,27.6c-9,10.7-19.2,22.8-19.2,49.5
		c0,8.7,2,18.5,5.5,27.6c3.6,9.1,8.6,17.3,14.7,23.9c-13.1,14-20.2,32.2-20.2,51.5c0,6,0.5,11.3,1.4,15.9c2.2,0.7,4.3,1.5,6.4,2.4
		c-1.3-5.2-2.1-11.2-2.1-18.3c0-18.7,7.3-36.3,20.5-49.5l2-2l-2-2c-15.1-15.1-20.5-36.1-20.5-49.5c0-24.6,9.1-35.4,17.9-45.8
		c7.2-8.6,14.1-16.8,14.1-31.2c0-9.2-3.7-19-10-26.2c-5.2-6-14.5-13.1-29.3-13.1c-14.5,0-22.6,6.8-31.2,14.1
		c-10.4,8.8-21.3,17.9-45.9,17.9c-13.4,0-34.3-5.4-49.5-20.5l-2-2l-2,2c-13.2,13.2-30.8,20.5-49.5,20.5c-24.6,0-35.4-9.1-45.9-17.9
		c-8.6-7.2-16.8-14.1-31.2-14.1c-14.8,0-24.1,7.1-29.3,13.1c-6.3,7.2-10,17-10,26.2c0,9.2,3.7,19,10,26.2c5.2,6,14.5,13.1,29.3,13.1
		c14.5,0,22.6-6.8,31.2-14.1c10.4-8.8,21.3-17.9,45.9-17.9c18.7,0,36.3,7.3,49.5,20.5l2,2l2-2c15.1-15.1,36.1-20.5,49.5-20.5
		c45.5,0,70.1,36,70.1,69.8c0,18.6-7.3,36.2-20.6,49.5l-1,1c1-5.1,1.5-10.8,1.5-17.2c0-1.5,0-3-0.1-4.4c5.1-8.7,7.8-18.6,7.8-28.9
		c0-9.5-3.4-24.1-12.8-36.3c-7.4-9.6-21.2-21.1-44.8-21.1c-15.3,0-29.8,6-40.6,16.8c-4.5,4.5-8.1,9.6-10.9,15.1
		c-2.8-5.6-6.4-10.7-10.9-15.1c-10.2-10.2-26.1-16.8-40.5-16.8c-21.5,0-33,9.2-43.2,17.4c-9.3,7.5-18.2,14.6-33.9,14.6
		c-21.3,0-33.7-10.3-40.3-18.9c-8.6-11.1-11.6-24.3-11.6-32.9c0-8.6,3-21.7,11.6-32.9c6.6-8.6,19-18.9,40.3-18.9
		c15.7,0,24.6,7.1,33.9,14.6c10.2,8.2,21.7,17.4,43.2,17.4c14.4,0,30.3-6.6,40.5-16.8c4.5-4.5,8.1-9.6,10.9-15.1
		c2.8,5.6,6.4,10.7,10.9,15.1c10.8,10.8,25.3,16.8,40.6,16.8c21.5,0,33-9.2,43.2-17.4c9.3-7.5,18.2-14.6,33.9-14.6
		c21.3,0,33.7,10.3,40.3,18.9c8.6,11.1,11.6,24.3,11.6,32.9c0,15.7-7.1,24.6-14.5,33.9c-8.1,10.2-17.4,21.7-17.4,43.2
		c0,15.3,6,29.8,16.9,40.7c4.5,4.5,9.6,8.1,15.1,10.9c-5.6,2.8-10.7,6.4-15.1,10.9c-10.2,10.2-16.8,26.1-16.8,40.5
		c0,13.9,3.9,23.6,8.8,31.5c3,3.2,5.5,6.7,7.6,10.5c0.3,0.4,0.6,0.8,0.9,1.2c7.5,9.3,14.6,18.2,14.6,33.9c0,21.5-10.3,34.7-19,42
		c-10.2,8.6-21.8,12.3-29.8,13l-8,5.5c1.8,0.2,3.5,0.3,5.1,0.3c9.3,0,23.8-3.8,36.4-14.5c9.6-8.1,21-22.6,21-46.4
		c0-17.8-8-27.8-15.8-37.5c-8.3-10.4-16.2-20.1-16.2-39.6c0-9.9,4-25.3,15.1-36.5c5.5-5.5,12.1-9.7,19.4-12.2l7.7-2.7l-7.7-2.7
		c-7.3-2.6-13.9-6.7-19.4-12.2c-9.8-9.8-15.2-22.8-15.2-36.6c0-19.4,7.8-29.2,16.1-39.6c7.8-9.7,15.8-19.7,15.8-37.5
		c0-9.5-3.4-24.1-12.8-36.3c-7.4-9.6-21.2-21.1-44.8-21.1c-17.8,0-27.8,8-37.5,15.8c-10.4,8.3-20.1,16.2-39.6,16.2
		c-13.8,0-26.8-5.4-36.6-15.2c-5.5-5.5-9.7-12.1-12.2-19.4l-2.7-7.7l-2.7,7.7c-2.6,7.3-6.7,13.9-12.2,19.4
		c-11.2,11.2-26.7,15.2-36.5,15.2c-19.5,0-29.2-7.8-39.6-16.2c-9.7-7.8-19.7-15.8-37.5-15.8c-23.6,0-37.4,11.5-44.8,21.1
		c-9.4,12.2-12.8,26.8-12.8,36.3c0,9.5,3.4,24.1,12.8,36.3c7.4,9.6,21.2,21.1,44.8,21.1c17.8,0,27.8-8,37.5-15.8
		c10.4-8.3,20.1-16.2,39.6-16.2c9.9,0,25.3,4,36.5,15.1c1,1,2,2.1,2.9,3.1c0.1,0.2,0.3,0.3,0.4,0.5c0.2,0.2,0.3,0.4,0.4,0.5
		c0.1,0.2,0.3,0.3,0.4,0.5c0.1,0.2,0.3,0.4,0.4,0.5c0.1,0.2,0.3,0.3,0.4,0.5c0.1,0.2,0.3,0.4,0.4,0.6c0.1,0.2,0.2,0.3,0.4,0.5
		c0.2,0.2,0.3,0.5,0.5,0.7c0.1,0.2,0.3,0.4,0.4,0.6c0.2,0.3,0.4,0.5,0.5,0.8c0.1,0.2,0.2,0.3,0.3,0.5c0.1,0.2,0.3,0.4,0.4,0.7
		c0.1,0.2,0.2,0.3,0.3,0.5c0.1,0.2,0.3,0.4,0.4,0.7c0.1,0.2,0.2,0.3,0.3,0.5c0.1,0.3,0.3,0.5,0.4,0.8c0.1,0.1,0.1,0.3,0.2,0.4
		c0.2,0.4,0.4,0.8,0.6,1.2c0.1,0.1,0.1,0.2,0.2,0.3c0.1,0.3,0.3,0.6,0.4,0.9c0.1,0.1,0.1,0.3,0.2,0.4c0.1,0.3,0.2,0.5,0.3,0.8
		c0.1,0.2,0.1,0.3,0.2,0.5c0.1,0.3,0.2,0.6,0.3,0.8c0.1,0.1,0.1,0.3,0.2,0.4c0.2,0.4,0.3,0.8,0.5,1.2c0,0,0,0,0,0l2.7,7.7l2.7-7.7
		c0.1-0.4,0.3-0.8,0.5-1.3c0.1-0.1,0.1-0.3,0.2-0.4c0.1-0.3,0.2-0.6,0.3-0.8c0.1-0.2,0.1-0.3,0.2-0.5c0.1-0.3,0.2-0.5,0.3-0.8
		c0.1-0.1,0.1-0.3,0.2-0.4c0.1-0.3,0.3-0.6,0.4-0.9c0.1-0.1,0.1-0.2,0.2-0.3c0.2-0.4,0.4-0.8,0.6-1.2c0.1-0.1,0.1-0.3,0.2-0.4
		c0.1-0.3,0.3-0.5,0.4-0.8c0.1-0.2,0.2-0.3,0.3-0.5c0.1-0.2,0.3-0.4,0.4-0.7c0.1-0.2,0.2-0.3,0.3-0.5c0.1-0.2,0.3-0.4,0.4-0.6
		c0.1-0.2,0.2-0.3,0.3-0.5c0.2-0.3,0.3-0.5,0.5-0.8c0.1-0.2,0.3-0.4,0.4-0.6c0.2-0.2,0.3-0.5,0.5-0.7c0.1-0.2,0.2-0.3,0.4-0.5
		c0.1-0.2,0.3-0.4,0.4-0.6c0.1-0.2,0.3-0.3,0.4-0.5c0.1-0.2,0.3-0.4,0.4-0.5c0.1-0.2,0.3-0.3,0.4-0.5c0.1-0.2,0.3-0.4,0.4-0.5
		c0.1-0.2,0.3-0.3,0.4-0.5c0.9-1.1,1.9-2.1,2.9-3.1c9.8-9.8,22.8-15.1,36.6-15.1c21.3,0,33.7,10.3,40.3,18.9
		c8.6,11.1,11.6,24.2,11.6,32.8c0,6.3-1.1,12.5-3.3,18.3c-1-5-2.5-9.6-4.5-13.9c-1.5-3.1-3.2-6-5.1-8.7c-0.9-8.5-4.7-16.8-11.2-23.4
		c-7.4-7.4-17.3-11.5-27.7-11.5c-7.7,0-15,2.2-21.3,6.2l0,0c0,0-0.1,0-0.1,0.1c-0.2,0.2-0.5,0.3-0.7,0.5c-0.1,0-0.1,0.1-0.2,0.1
		c-0.2,0.2-0.5,0.3-0.7,0.5c-0.1,0-0.1,0.1-0.2,0.1c-0.2,0.2-0.4,0.3-0.6,0.5c-0.1,0-0.1,0.1-0.2,0.1c-0.2,0.2-0.4,0.3-0.6,0.5
		c-0.1,0.1-0.1,0.1-0.2,0.2c-0.2,0.2-0.4,0.3-0.6,0.5c-0.1,0.1-0.2,0.1-0.2,0.2c-0.2,0.2-0.4,0.3-0.5,0.5c-0.1,0.1-0.2,0.1-0.2,0.2
		c-0.2,0.2-0.4,0.3-0.5,0.5c-0.1,0.1-0.1,0.1-0.2,0.2c-0.2,0.2-0.5,0.5-0.7,0.7c-0.2,0.2-0.5,0.5-0.7,0.7c-0.2,0.2-0.4,0.4-0.6,0.6
		c0,0-0.1,0.1-0.1,0.1c0,0,0,0,0,0c-1.2,1.3-2.2,2.6-3.2,4c0,0,0,0,0,0c-0.2,0.3-0.4,0.5-0.5,0.8c0,0,0,0.1-0.1,0.1
		c-0.2,0.2-0.3,0.5-0.5,0.7c0,0.1-0.1,0.1-0.1,0.2c-0.1,0.2-0.3,0.5-0.4,0.7c0,0.1-0.1,0.1-0.1,0.2c-0.1,0.2-0.2,0.4-0.4,0.7
		c0,0.1-0.1,0.2-0.1,0.2c-0.1,0.2-0.2,0.4-0.3,0.6c0,0.1-0.1,0.2-0.1,0.2c-0.1,0.2-0.2,0.4-0.3,0.6c0,0.1-0.1,0.2-0.1,0.3
		c-0.1,0.2-0.2,0.4-0.3,0.6c0,0.1-0.1,0.2-0.1,0.3c-0.1,0.2-0.2,0.4-0.3,0.6c0,0.1-0.1,0.2-0.1,0.3c-0.1,0.2-0.2,0.4-0.3,0.6
		c0,0.1-0.1,0.2-0.1,0.3c-0.1,0.2-0.2,0.4-0.2,0.6c0,0.1-0.1,0.2-0.1,0.3c-0.1,0.2-0.2,0.4-0.2,0.6c0,0.1-0.1,0.2-0.1,0.3
		c-0.1,0.2-0.1,0.4-0.2,0.7c0,0.1-0.1,0.2-0.1,0.3c-0.1,0.2-0.1,0.4-0.2,0.7c0,0.1-0.1,0.2-0.1,0.3c-0.1,0.2-0.1,0.5-0.2,0.7
		c0,0.1,0,0.2-0.1,0.3c-0.1,0.2-0.1,0.5-0.2,0.7c0,0.1,0,0.2-0.1,0.2c-0.1,0.2-0.1,0.5-0.2,0.7c0,0.1,0,0.2,0,0.2
		c0,0.2-0.1,0.5-0.1,0.7c0,0.1,0,0.1,0,0.2c0,0.2-0.1,0.5-0.1,0.7c0,0.1,0,0.1,0,0.2c0,0.3-0.1,0.5-0.1,0.8c0,0.1,0,0.1,0,0.2
		c0,0.3-0.1,0.5-0.1,0.8c0,0.1,0,0.1,0,0.2c0,0.3-0.1,0.6-0.1,0.8c0,0,0,0.1,0,0.1c0,0.3,0,0.6-0.1,0.9c0,0,0,0,0,0.1
		c0,0.3,0,0.6,0,0.9c0,0,0,0,0,0c-0.3,10.4,3.5,20.9,11.5,28.8c7.4,7.4,17.3,11.5,27.7,11.5l0,0c1.5,0,3.1-0.1,4.6-0.3
		c-0.9,8.8-4.1,15.3-9.6,19.7c-6.6,5.3-16.5,7.9-29.9,7.9h-29.5V291v-27.6v-10.6v-1.1v-3.8V240v-1c0-0.3,0-0.7,0-1.1v-0.2h0
		c0-0.1,0-0.2-0.1-0.3c0,0,0,0,0,0c0-0.1,0-0.1,0-0.2c0-0.2-0.1-0.5-0.2-0.7c0-0.1,0-0.1,0-0.2c0-0.1,0-0.1,0-0.2
		c0-0.1,0-0.2-0.1-0.2c-0.1-0.3-0.1-0.6-0.2-0.9c0,0,0,0,0,0c0,0,0,0,0,0c0-0.1,0-0.1-0.1-0.2c-0.1-0.4-0.2-0.7-0.3-1.1
		c0-0.1,0-0.2-0.1-0.2c-0.1-0.3-0.2-0.6-0.3-1c0-0.1,0-0.1-0.1-0.2c-0.1-0.4-0.3-0.7-0.4-1.1c0-0.1-0.1-0.2-0.1-0.2c0,0,0,0,0,0
		c0-0.1-0.1-0.2-0.1-0.3c-0.1-0.2-0.2-0.4-0.3-0.6c0-0.1,0-0.1-0.1-0.2c0-0.1-0.1-0.1-0.1-0.2c-0.1-0.1-0.1-0.2-0.2-0.4
		c-0.1-0.2-0.1-0.3-0.2-0.5c0-0.1-0.1-0.1-0.1-0.2c0-0.1-0.1-0.1-0.1-0.2c-0.1-0.1-0.1-0.3-0.2-0.4c-0.1-0.1-0.1-0.2-0.2-0.3
		c0-0.1-0.1-0.1-0.1-0.2c-0.1-0.1-0.1-0.2-0.2-0.3c-0.1-0.1-0.1-0.3-0.2-0.4c0-0.1-0.1-0.2-0.1-0.2c0-0.1-0.1-0.1-0.1-0.2
		c-0.1-0.1-0.1-0.2-0.2-0.3c-0.1-0.1-0.1-0.3-0.2-0.4c0,0,0-0.1-0.1-0.1c-0.1-0.2-0.2-0.4-0.3-0.5c-0.1-0.2-0.2-0.3-0.3-0.5
		c-0.2-0.4-0.4-0.7-0.7-1.1c-0.1-0.2-0.2-0.3-0.3-0.5c-0.1-0.2-0.3-0.4-0.4-0.6c-0.1-0.2-0.2-0.3-0.4-0.5c-0.1-0.2-0.3-0.4-0.5-0.6
		c-0.1-0.2-0.2-0.3-0.4-0.5c-0.2-0.2-0.3-0.4-0.5-0.6c-0.1-0.1-0.2-0.3-0.4-0.4c-0.2-0.2-0.4-0.4-0.6-0.7c-0.1-0.1-0.2-0.2-0.3-0.3
		c-0.3-0.3-0.6-0.7-0.9-1c-0.3-0.3-0.5-0.5-0.8-0.8c-0.1-0.1-0.1-0.1-0.2-0.2c-0.2-0.2-0.4-0.4-0.6-0.6c-0.1-0.1-0.1-0.1-0.2-0.2
		c-0.2-0.2-0.5-0.4-0.7-0.6c0,0-0.1-0.1-0.1-0.1c-7-5.9-15.9-9.2-25.5-9.2c-16.1,0-26.5,7.9-36.5,15.6
		c-10.7,8.1-21.7,16.5-40.5,16.5c-33.9,0-69.9-24.6-69.9-70.1c0-45.6,36-70.2,69.9-70.2c18.8,0,29.9,8.4,40.5,16.5
		c10,7.7,20.4,15.6,36.5,15.6c10.8,0,20.8-4.1,28.1-11.7c7.2-7.3,11.1-17.1,11.1-27.6c0-14.1-6-21.3-11.3-27.6
		c-5.1-6.1-10-11.8-10-23.7c0-18.8,14.7-33.5,33.5-33.5c18.8,0,33.5,14.7,33.5,33.5c0,11.9-4.8,17.6-10,23.7
		c-5.3,6.3-11.3,13.5-11.3,27.6c0,10.4,3.9,20.2,11.1,27.6c7.3,7.5,17.3,11.7,28.1,11.7c16.1,0,26.5-7.9,36.5-15.6
		c10.7-8.1,21.7-16.5,40.5-16.5c33.9,0,69.9,24.6,69.9,70.2c0,18.8-8.4,29.9-16.5,40.5c-7.7,10-15.6,20.4-15.6,36.5
		c0,10.8,4.1,20.8,11.7,28.1c7.3,7.2,17.1,11.1,27.6,11.1c14.1,0,21.3-6,27.6-11.4c6.1-5.1,11.8-10,23.7-10
		c18.8,0,33.5,14.7,33.5,33.5c0,18.8-14.7,33.5-33.5,33.5c-11.9,0-17.6-4.8-23.7-10c-6.3-5.3-13.5-11.3-27.6-11.3
		c-10.4,0-20.2,3.9-27.6,11.1c-7.5,7.3-11.7,17.3-11.7,28.1c0,16.1,7.9,26.5,15.6,36.5c8.1,10.7,16.5,21.7,16.5,40.5
		c0,34.2-24.4,69.5-65.5,72h25.1c0.6-0.3,1.2-0.5,1.8-0.8c9.1-4.1,17.1-10,23.9-17.6c12.9-14.3,20.3-33.9,20.3-53.6
		c0-20.8-9.4-33.1-17.7-44c-7.4-9.7-14.4-18.9-14.4-33.1c0-18.8,14.7-33.5,33.5-33.5c12,0,17.8,4.9,23.9,10
		c6.6,5.6,13.4,11.3,27.4,11.3c10.8,0,20.8-4.1,28.1-11.7c7.2-7.3,11.1-17.1,11.1-27.6S692.8,276.2,685.7,268.8z M71.8,398.6
		l-0.4-0.3c-5.1-3.2-9.7-6.7-15.6-11.2l-1.9-1.5c-4.5-3.6-9.6-5.6-14.5-5.8c-0.3,0-0.6,0-0.8,0c-5.3,0-10.2,2.1-14.2,6
		c-8.2,8.2-8.2,21.6,0,29.8c3.8,3.8,8.7,5.9,14,5.9c0.3,0,0.7,0,1,0c4.9-0.2,9.9-2.1,14.4-5.5c2.8-2,5.4-3.9,7.9-5.8
		c2.7-2.1,5.3-4,7.9-5.8l-8.2,21.3c-5.6,4.6-11.3,8.7-22.2,8.7c-18.8,0-33.5-14.7-33.5-33.5c0-18.8,14.7-33.5,33.5-33.5
		c11.9,0,17.6,4.8,23.7,10c3.8,3.2,7.9,6.6,13.6,8.9L71.8,398.6z M64.7,400.8c-2.1,1.5-4.2,3.1-6.4,4.8c-2.5,1.9-5,3.8-7.8,5.7
		l-0.1,0.1c-3.6,2.7-7.5,4.3-11.3,4.4c-4.1,0.2-7.8-1.3-10.7-4.2c-6-6-6-15.7,0-21.7c2.9-2.9,6.4-4.4,10.1-4.4c0.2,0,0.4,0,0.6,0
		c3.7,0.2,7.6,1.7,11.2,4.6l2,1.5C56.9,395.2,60.8,398.1,64.7,400.8z M452.1,211.5c9,0,17.4,3.5,23.7,9.8c3,3,5.2,6.3,6.9,9.9
		c-1-0.9-2.1-1.8-3.2-2.7c-7.2-5.6-15.9-9.8-26-12.7c-3.9-1.1-7.9-2-12.1-2.6C444.7,212.1,448.3,211.5,452.1,211.5z M452.1,278.6
		c-9,0-17.4-3.5-23.7-9.8c-5.8-5.8-9.1-13.3-9.7-20.9h3c23.5,0,35.2,10.1,35.3,30.4C455.3,278.4,453.7,278.6,452.1,278.6z
		 M114.2,488.8c7.7-10,15.6-20.4,15.6-36.5c0-10.8-4.1-20.8-11.7-28.1c-2.5-2.5-5.3-4.5-8.3-6.2l4.3-11.8c4.8,2.5,9.3,5.7,13.2,9.6
		c9.8,9.8,15.2,22.8,15.2,36.6c0,19.5-7.8,29.2-16.2,39.6c-0.9,1.2-1.9,2.4-2.8,3.6l-14.1,0C110.9,493.2,112.6,491,114.2,488.8z
		 M116.9,280.8c-0.5-2.6-0.8-5.4-0.8-8.5c0-21.3,10.3-33.7,18.9-40.3c0.3-0.2,0.6-0.4,0.9-0.6L116.9,280.8z M140.2,333.3
		c1.4,4.6,2.2,9.8,2.2,16c0,1.6-0.1,3.3-0.3,5.2h-9.5L140.2,333.3z M147.8,596.7c-30.8-8.3-48.1-35.5-49.9-62.5h12.7
		c1.4,20.7,12,33.1,20.9,40c5.2,4,10.8,6.9,16.3,8.9V596.7z M147.8,577c-4.3-1.8-8.7-4.2-12.8-7.3c-7.9-6.1-17.3-17.1-18.7-35.5
		c0-0.6-0.1-1.2-0.1-1.9c0-0.2,0-0.4,0-0.6c0-0.2,0-0.5,0-0.7c0-0.5,0-1.1,0-1.6c0-15.7,7.1-24.6,14.6-33.9c0,0,0,0,0,0
		c8.2-10.2,17.4-21.7,17.4-43.2c0-15.3-6-29.8-16.8-40.6c-4.5-4.5-9.6-8.1-15.1-10.9v-0.3l3.8-10.4h27.6c-2.2,3.1-4.7,6-7.4,8.7
		l-2,2l2,2c15.1,15.1,20.5,36.1,20.5,49.5c0,22.5-7.6,33.5-15.6,43.2c-0.7,0.9-1.5,1.8-2.2,2.7c-7.2,8.6-14.1,16.8-14.1,31.2
		c0,0.4,0,0.9,0,1.3c0,0.3,0,0.6,0,0.9c0,0.1,0,0.2,0,0.3c0,0.4,0,0.8,0.1,1.1c0,0,0,0,0,0c1.1,12.7,7.5,20.9,12.9,25.6
		c1.9,1.6,3.9,3.1,6.1,4.4V577z M169.4,349.3c0,1.7,0.1,3.5,0.2,5.2h-3.5c0.1-1.7,0.2-3.5,0.2-5.2c0-23.2-7.7-35.4-15.6-45.2
		l17.2-54.4l16.3,55.5C176.6,314.9,169.4,327,169.4,349.3z M186.3,311.9l13.4,42.6h-24.3c-0.1-1.7-0.2-3.5-0.2-5.2
		C175.1,331.1,180.1,320.4,186.3,311.9z M170.8,400.9c-1.1,1.4-2,2.7-2.9,4.1c-0.9-1.5-1.8-2.9-2.9-4.3c1-1.3,1.9-2.6,2.7-3.8
		C168.6,398.4,169.6,399.6,170.8,400.9z M160.6,349.3c0,1.7-0.1,3.5-0.2,5.2h-12.6c0.2-1.7,0.3-3.5,0.3-5.2c0-9.9-2-17.7-4.9-24.2
		l5.3-14.6C155,319.3,160.6,330.1,160.6,349.3z M147.8,556.1c-6.5-4.7-11.8-12-13.1-21.9h12.7c0.1,0.5,0.3,1.1,0.4,1.6V556.1z
		 M152.3,495.4c7.3-9.5,14-21.6,14-43.2c0-8.7-2-18.5-5.5-27.6c-3.6-9.1-8.6-17.3-14.7-23.9c3.1-3.3,5.9-6.9,8.3-10.7h10.5
		c-1.9,3.7-3.6,6.4-5.8,8.7l-1.9,2l2,2c2.4,2.4,4.3,5.9,6.1,9.3l2.7,5.2l2.5-5.1c1.7-3.5,3.4-5.9,6.3-9.6l1.6-2l-1.8-1.8
		c-2.8-2.8-4.3-4.7-5.9-8.6h10.6c2.4,3.8,5.2,7.4,8.3,10.7c-6.1,6.6-11.1,14.8-14.7,23.9c-3.6,9.1-5.5,18.9-5.5,27.6
		c0,11.3,2.1,21.9,6.3,31.5c1.8,4.1,3.9,8,6.3,11.6L152.3,495.4z M319.7,578.8c-7.2,7.3-11.1,17.1-11.1,27.6
		c0,14.1,6,21.3,11.4,27.6c5.1,6.1,10,11.8,10,23.7c0,18.8-14.7,33.5-33.5,33.5c-18.8,0-33.5-14.7-33.5-33.5
		c0-11.9,4.8-17.6,10-23.7c5.3-6.3,11.3-13.5,11.3-27.6c0-10.4-3.9-20.2-11.1-27.6c-7.3-7.5-17.3-11.7-28.1-11.7
		c-16.1,0-26.5,7.9-36.5,15.6c-5.2,4-10.5,8-16.7,11.1v-12.9c5-2.8,9.4-6.3,13.6-9.7c10.4-8.3,20.2-16.1,39.6-16.1
		c13.8,0,26.8,5.4,36.6,15.2c5.5,5.5,9.7,12.1,12.2,19.4l2.7,7.7l2.7-7.7c2.6-7.3,6.7-13.9,12.2-19.4c8.7-8.7,20.1-13.1,29.4-14.5
		c0.1,4.2,0.4,8.2,1,11.9C333.4,568.8,325.7,572.7,319.7,578.8z M389.2,538.6c2.2-3.2,5.1-5.8,8.7-7.8c3.6-2,7.7-3.5,12.4-4.4
		c4.6-1,9.4-1.4,14.3-1.4c5.9,0,11.7,0.7,17.3,2.1c5.6,1.4,11,3.1,16,5.2c0.2,0.1,0.4,0.2,0.5,0.2C457,545.8,446.3,563,425,563
		c-12.4,0-19.4-5.9-27.6-12.8c-3.2-2.7-6.4-5.4-10.2-8C387.8,540.9,388.4,539.7,389.2,538.6z M294.4,557.2l2,2l2-2
		c12.1-12.1,27.8-19.2,44.7-20.3c0.6,0,1.3-0.1,1.9-0.1c0.3,0,0.5,0,0.8,0c0.2,0,0.4,0,0.6,0c0.5,0,1,0,1.5,0c0.5,0,1,0,1.5,0
		c0.1,0,0.2,0,0.4,0c0.5,0,1,0,1.5,0c0,0,0,0,0.1,0c0.5,0,0.9,0,1.4,0.1c0.1,0,0.2,0,0.3,0c0.5,0,0.9,0.1,1.4,0.1c0,0,0.1,0,0.1,0
		c0.4,0,0.9,0.1,1.3,0.1c0.1,0,0.2,0,0.3,0c0.4,0,0.9,0.1,1.3,0.1c0.1,0,0.1,0,0.2,0c0.4,0,0.8,0.1,1.2,0.1c0.1,0,0.2,0,0.3,0
		c0.4,0.1,0.8,0.1,1.3,0.2c0.1,0,0.1,0,0.2,0c0.4,0.1,0.7,0.1,1.1,0.2c0.1,0,0.2,0,0.3,0c0.4,0.1,0.8,0.1,1.2,0.2c0.1,0,0.1,0,0.2,0
		c0.4,0.1,0.7,0.1,1,0.2c0.1,0,0.2,0,0.2,0.1c0.4,0.1,0.8,0.2,1.1,0.3c0.1,0,0.1,0,0.2,0c0.3,0.1,0.7,0.2,1,0.3c0.1,0,0.1,0,0.2,0.1
		c0.4,0.1,0.7,0.2,1.1,0.3c0.1,0,0.1,0,0.2,0.1c0.3,0.1,0.6,0.2,1,0.3c0.1,0,0.1,0,0.2,0.1c0.4,0.1,0.7,0.2,1,0.3
		c0.1,0,0.1,0,0.2,0.1c0.3,0.1,0.6,0.2,0.9,0.3c0,0,0.1,0,0.1,0c0.3,0.1,0.7,0.3,1,0.4c0.1,0,0.1,0,0.2,0.1c0.3,0.1,0.6,0.2,0.9,0.4
		c0,0,0.1,0,0.1,0c0.3,0.1,0.6,0.3,1,0.4c0,0,0.1,0,0.1,0.1c0.3,0.1,0.6,0.3,0.9,0.4c0,0,0,0,0,0c0.3,0.1,0.6,0.3,0.9,0.5
		c0,0,0.1,0,0.1,0.1c0.3,0.2,0.6,0.3,0.9,0.5c0,0,0,0,0,0c0.3,0.2,0.6,0.3,0.9,0.5c0,0,0.1,0,0.1,0.1c0.6,0.3,1.2,0.7,1.7,1
		c0,0,0.1,0,0.1,0.1c0.6,0.3,1.1,0.7,1.7,1.1c0,0,0,0,0.1,0c0.6,0.4,1.1,0.7,1.6,1.1c0,0,0,0,0,0c0.5,0.4,1.1,0.8,1.6,1.2
		c2.8,2,5.3,4.2,7.8,6.3c8.6,7.2,16.8,14.1,31.2,14.1c14.8,0,24.1-7.1,29.3-13.1c5-5.8,8.4-13.2,9.6-20.7c2.9,1.4,5.6,2.9,8.3,4.4
		c1.1,0.7,2.2,1.3,3.2,2c-1.7,6.8-4.8,14.3-10.1,21.1c-6.6,8.6-19,18.9-40.3,18.9c-0.9,0-1.8,0-2.6-0.1c-0.4,0-0.8,0-1.2-0.1
		c-0.1,0-0.1,0-0.2,0c-0.4,0-0.7-0.1-1.1-0.1c-0.1,0-0.1,0-0.2,0c-0.3,0-0.7-0.1-1-0.1c-0.1,0-0.2,0-0.2,0c-0.3,0-0.7-0.1-1-0.1
		c-0.1,0-0.2,0-0.3,0c-0.3-0.1-0.6-0.1-0.9-0.2c-0.1,0-0.2,0-0.3,0c-0.3-0.1-0.6-0.1-0.9-0.2c-0.1,0-0.2,0-0.3-0.1
		c-0.3-0.1-0.6-0.1-0.9-0.2c-0.1,0-0.2,0-0.2-0.1c-0.3-0.1-0.6-0.2-0.9-0.2c-0.1,0-0.1,0-0.2-0.1c-0.3-0.1-0.6-0.2-0.9-0.3
		c-0.1,0-0.1,0-0.2-0.1c-0.3-0.1-0.6-0.2-0.9-0.3c0,0-0.1,0-0.1,0c-0.3-0.1-0.6-0.2-0.9-0.3c0,0,0,0,0,0c-2.3-0.9-4.5-2-6.5-3.2
		c0,0-0.1,0-0.1-0.1c-0.2-0.1-0.5-0.3-0.7-0.4c-0.1,0-0.1-0.1-0.2-0.1c-0.2-0.1-0.4-0.3-0.7-0.4c-0.1-0.1-0.2-0.1-0.2-0.2
		c-0.2-0.1-0.4-0.3-0.6-0.4c-0.1-0.1-0.2-0.1-0.3-0.2c-0.2-0.1-0.4-0.3-0.6-0.4c-0.1-0.1-0.2-0.1-0.3-0.2c-0.2-0.1-0.4-0.3-0.6-0.4
		c-0.1-0.1-0.2-0.1-0.3-0.2c-0.2-0.1-0.4-0.3-0.6-0.4c-0.1-0.1-0.2-0.2-0.3-0.2c-0.2-0.1-0.4-0.3-0.5-0.4c-0.1-0.1-0.2-0.2-0.3-0.2
		c-0.2-0.1-0.3-0.3-0.5-0.4c-0.1-0.1-0.2-0.2-0.3-0.3c-0.2-0.1-0.3-0.3-0.5-0.4c-0.1-0.1-0.2-0.2-0.4-0.3c-0.2-0.1-0.3-0.2-0.5-0.4
		c-0.1-0.1-0.3-0.2-0.4-0.3c-0.2-0.1-0.3-0.2-0.4-0.4c-0.1-0.1-0.3-0.2-0.4-0.3c-0.1-0.1-0.3-0.2-0.4-0.3c-0.2-0.1-0.3-0.3-0.5-0.4
		c-0.1-0.1-0.2-0.2-0.3-0.3c-0.3-0.2-0.6-0.4-0.8-0.7c-8.6-6.9-18.1-14.5-33.8-16.8c-2.9-0.4-6-0.6-9.4-0.6c-0.5,0-1.1,0-1.6,0
		c-0.1,0-0.3,0-0.4,0c-0.4,0-0.8,0-1.2,0.1c-0.1,0-0.3,0-0.4,0c-0.5,0-1,0.1-1.5,0.1c0,0-0.1,0-0.1,0c-12.9,1.4-26.3,7.6-35.3,16.5
		c-4.5,4.5-8.1,9.6-10.9,15.1c-2.8-5.6-6.4-10.7-10.9-15.1c-10.9-10.9-25.3-16.9-40.7-16.9c-21.5,0-33,9.2-43.2,17.4
		c-3.3,2.6-6.6,5.2-10.1,7.5v-13.7c2.5-1.8,4.9-3.9,7.4-5.9c10.4-8.8,21.3-17.9,45.9-17.9C258.3,536.7,279.3,542.1,294.4,557.2z
		 M222,534.2c-11.9,3.7-19.6,10.1-26.6,16c-1.2,1.1-2.5,2.1-3.7,3.1v-19.1H222z M204.4,411.7c-10.8,10.8-16.8,25.3-16.8,40.6
		c0,21.9,9.9,35.4,19,43.1l-17.5,0c-8.5-11.1-13.9-25.6-13.9-43.1c0-13.4,5.4-34.3,20.5-49.5l2-2l-2-2c-2.7-2.7-5.2-5.6-7.4-8.7
		h22.5l4.2,13.2C211.2,405.7,207.7,408.4,204.4,411.7z M218.7,281.5l-17.1-49c8.4,6.8,18.1,19,18.1,39.7
		C219.6,275.7,219.3,278.7,218.7,281.5z M238,272.3c0,14.5-5,24.4-11,33.1l-5.2-14.7c2.1-5.2,3.4-11.1,3.4-18.4
		c0-23.6-11.5-37.4-21.1-44.8c-1.9-1.5-3.9-2.8-5.9-4l-4.7-13.5H144l-4.8,12.4c-2.6,1.4-5.2,3.1-7.8,5c-9.6,7.4-21.1,21.2-21.1,44.8
		c0,6.8,1.2,12.5,3.1,17.4l-5.6,14.5c-5.7-8.4-10.3-18-10.3-31.9c0-33.9,24.6-69.9,70.2-69.9S238,238.4,238,272.3z"/>
	<polygon class="black" points="343.8,399.6 259.9,399.6 259.9,311.7 216,311.7 216,495.4 259.9,495.4 259.9,435.6 343.8,435.6 	
		"/>
	<path class="color" d="M274.1,435.6c7.4,12.8,5.6,29.5-5.4,40.4c-2.6,2.6-5.6,4.8-8.9,6.4v6.3c4.8-1.9,9.2-4.8,12.9-8.6
		c12-12,14.6-29.9,7.8-44.4H274.1z"/>
	<path class="color" d="M277.6,399.6c1.6-1.2,3.2-2.4,4.9-3.6c2.5-1.9,5-3.8,7.8-5.7l0.1-0.1c3.6-2.7,7.5-4.3,11.3-4.4
		c4.1-0.2,7.8,1.3,10.7,4.2c2.7,2.7,4.2,6.2,4.4,9.7h5.7c-0.3-5-2.3-9.9-6.1-13.7c-3.8-3.8-8.7-5.9-14-5.9c-0.3,0-0.7,0-1,0
		c-4.9,0.2-9.9,2.1-14.4,5.5c-2.8,2-5.4,3.9-7.9,5.8c-3.3,2.5-6.5,4.9-9.7,6.9l-2,1.3H277.6z"/>
	<path class="color" d="M259.9,385.8c5.3-2.2,9.3-5.5,12.9-8.6c6.1-5.1,11.8-10,23.7-10c19.8,0,37.9,15.3,38.7,32.4h5.7
		c-0.4-9.7-5.4-19.3-13.9-26.6c-8.5-7.3-19.7-11.5-30.5-11.5c-14,0-20.8,5.7-27.4,11.3c-2.9,2.5-5.8,4.8-9.2,6.7V385.8z"/>
	<path class="color" d="M343.9,490.8l0-5.7c-16.8-1.9-29.5-15.8-29.5-33.1c0-7.4,2.3-12.2,5.6-16.4H313c-2.6,4.3-4.4,9.5-4.4,16.4
		c0,10.4,3.9,20.2,11.1,27.5C326.1,486,334.6,490,343.9,490.8z"/>
	<path class="black" d="M345,531.1c0.2-0.6,0.5-1.1,0.7-1.7c0.1-0.2,0.2-0.5,0.3-0.7c0.2-0.3,0.3-0.7,0.5-1c0.9-1.9,1.9-3.7,3-5.5
		c0.2-0.3,0.4-0.6,0.5-0.9c0-0.1,0.1-0.1,0.1-0.2c0.6-0.9,1.1-1.7,1.8-2.6c0-0.1,0.1-0.1,0.1-0.2c0.6-0.9,1.3-1.7,1.9-2.5
		c0,0,0.1-0.1,0.1-0.1c0.7-0.8,1.4-1.6,2.1-2.4c0,0,0,0,0.1-0.1c0.8-0.8,1.5-1.6,2.3-2.4c0,0,0,0,0,0c0.8-0.8,1.7-1.5,2.5-2.3
		c0.7-0.6,1.4-1.1,2.1-1.7c6.7-5.3,14.9-9.4,24.5-12.6v-6.4V473v-7.1v-30.4h-43.8v95.6c0.2,0,0.4,0,0.7,0
		C344.7,531.1,344.9,531.1,345,531.1z"/>
	<path class="black" d="M749,311.7v88h-84v-64.7c-2.4,0.5-5,0.7-7.5,0.7c-14,0-20.8-5.7-27.4-11.3c-2.8-2.4-5.6-4.7-9-6.5v216.4
		h43.9v-98.3h84v98.3h43.9V311.7H749z"/>
	<path class="color" d="M529.3,202.3l-2.4-3.9c-3.5-5.6-7.7-10.9-12.5-15.6c-4.7-4.7-10-8.9-15.6-12.5l-3.9-2.4l3.9-2.4
		c5.6-3.5,10.9-7.7,15.6-12.5l0.3-0.3c3.9-3.8,9.1-5.8,14.5-5.8c5.6,0,10.9,2.2,14.9,6.2c4,4,6.2,9.3,6.2,14.9
		c0,5.5-2.1,10.6-5.8,14.5l0,0l-0.3,0.3c-4.7,4.7-8.9,10-12.5,15.6L529.3,202.3z M505.4,167.9c4.6,3.2,9,6.8,13,10.8
		c4,4,7.6,8.4,10.8,13c3.1-4.5,6.6-8.7,10.5-12.6l0,0l0.3-0.3c2.9-2.9,4.5-6.7,4.5-10.8c0-4.1-1.6-7.9-4.5-10.8
		c-2.9-2.9-6.8-4.5-10.8-4.5c-4.1,0-7.9,1.6-10.8,4.5l-0.3,0.3C514.2,161.2,509.9,164.8,505.4,167.9z"/>
	<path class="color" d="M400.7,178.5l-2-1.9c-2.5-2.3-5.3-4.2-9.4-6.2l-5.9-2.9l6.2-2.3c4.3-1.6,6.2-3.1,9.1-6l1.8-1.8l2,1.6
		c3.7,2.9,6.1,4.6,9.6,6.3l5.1,2.5l-5.2,2.7c-3.4,1.8-6.9,3.6-9.3,6L400.7,178.5z M396.7,168c1.3,0.8,2.5,1.7,3.8,2.7
		c1.3-1.1,2.8-2,4.3-2.9c-1.3-0.9-2.6-1.8-4.1-2.9C399.4,166.1,398.2,167.1,396.7,168z"/>
	<path class="color" d="M529.4,313l-2.7-5.2c-1.8-3.4-3.6-6.9-6.1-9.3l-2-2l1.9-2c2.3-2.5,4.2-5.3,6.2-9.4l2.9-5.9l2.3,6.2
		c1.6,4.3,3.1,6.2,6,9.1l1.8,1.8l-1.6,2c-2.9,3.7-4.6,6.1-6.3,9.6L529.4,313z M526.4,296.4c1.1,1.3,2,2.8,2.9,4.3
		c0.9-1.3,1.8-2.6,2.9-4.1c-1.2-1.3-2.2-2.6-3.1-4C528.3,293.9,527.4,295.1,526.4,296.4z"/>
	<path class="color" d="M296.7,539.9l-2-1.6c-3.7-2.9-6.1-4.6-9.6-6.3l-5.1-2.5l5.2-2.7c3.4-1.8,6.9-3.6,9.3-6.1l2-2l2,1.9
		c2.5,2.3,5.3,4.2,9.4,6.2l5.9,2.9l-6.2,2.3c-4.3,1.6-6.2,3.1-9.1,6L296.7,539.9z M292.3,529.5c1.3,0.9,2.6,1.8,4.1,2.9
		c1.3-1.2,2.6-2.2,4-3.1c-1.3-0.8-2.5-1.7-3.8-2.7C295.2,527.6,293.8,528.6,292.3,529.5z"/>
	<path class="color" d="M400.6,75.2l-2.4-3.9c-2-3.2-4.4-6.3-6.9-9.7c-1.9-2.5-3.9-5.1-5.8-7.9c-3.4-4.5-5.3-9.5-5.5-14.4
		c-0.3-5.7,1.8-10.9,5.8-15c4-4,9.3-6.2,14.9-6.2s10.9,2.2,14.9,6.2c4.2,4.2,6.3,9.4,6,15c-0.2,4.9-2.2,9.9-5.8,14.5l-1.5,1.9
		c-4.5,5.9-8,10.5-11.2,15.6L400.6,75.2z M400.6,23.9c-4.1,0-7.9,1.6-10.8,4.5c-2.9,2.9-4.4,6.6-4.2,10.7c0.2,3.8,1.7,7.7,4.4,11.3
		l0.1,0.1c1.9,2.7,3.9,5.3,5.7,7.8c1.7,2.2,3.3,4.3,4.8,6.4c2.7-3.9,5.6-7.8,9.1-12.4l1.5-2c2.8-3.6,4.4-7.5,4.6-11.2
		c0.2-4-1.3-7.7-4.4-10.7C408.5,25.5,404.7,23.9,400.6,23.9z"/>
	<path class="color" d="M271,188.6c-5.3,0-10.2-2-14-5.9c-8.2-8.2-8.2-21.6,0-29.8c4-4,8.8-6,14.2-6c0.3,0,0.6,0,0.8,0
		c4.9,0.2,9.9,2.2,14.5,5.8l1.9,1.5c5.9,4.5,10.5,8,15.6,11.2l3.9,2.4l-3.9,2.4c-3.2,2-6.3,4.4-9.7,6.9c-2.5,1.9-5.1,3.9-7.9,5.8
		c-4.5,3.4-9.5,5.3-14.4,5.5C271.7,188.6,271.4,188.6,271,188.6z M271.2,152.7c-3.8,0-7.3,1.5-10.1,4.4c-6,6-6,15.7,0,21.7
		c2.9,2.9,6.6,4.4,10.7,4.2c3.8-0.2,7.7-1.7,11.3-4.4l0.1-0.1c2.7-1.9,5.3-3.9,7.8-5.7c2.2-1.7,4.3-3.3,6.4-4.8
		c-3.9-2.7-7.8-5.6-12.4-9.1l-2-1.5c-3.6-2.8-7.5-4.4-11.2-4.6C271.6,152.7,271.4,152.7,271.2,152.7z"/>
	<path class="color" d="M296.5,679.1c-5.6,0-10.9-2.2-14.9-6.2c-4.2-4.2-6.3-9.4-6-15c0.2-4.9,2.2-9.9,5.8-14.5l1.5-1.9
		c4.5-5.9,8-10.5,11.2-15.6l2.4-3.9l2.4,3.9c2,3.2,4.4,6.3,6.9,9.7c1.9,2.5,3.9,5.1,5.8,7.9c3.4,4.5,5.3,9.5,5.5,14.4
		c0.3,5.7-1.8,10.9-5.8,15C307.4,676.9,302.1,679.1,296.5,679.1z M296.5,632.6c-2.7,3.9-5.6,7.8-9.1,12.4l-1.5,2
		c-2.8,3.6-4.4,7.5-4.6,11.2c-0.2,4,1.3,7.7,4.4,10.7c2.9,2.9,6.8,4.5,10.8,4.5c4.1,0,8-1.6,10.8-4.5c2.9-2.9,4.4-6.6,4.2-10.7
		c-0.2-3.8-1.7-7.7-4.4-11.3l-0.1-0.1c-1.9-2.8-3.9-5.3-5.7-7.8C299.6,636.9,298,634.8,296.5,632.6z"/>
	<path class="color"  d="M658.6,317.4L658.6,317.4c-0.3,0-0.6,0-0.8,0c-4.9-0.2-9.9-2.2-14.5-5.8l-1.9-1.5
		c-5.9-4.5-10.5-8-15.6-11.2l-3.9-2.4l3.9-2.4c3.2-2,6.3-4.4,9.7-6.9c2.5-1.9,5.1-3.9,7.9-5.8c4.5-3.4,9.5-5.3,14.4-5.5
		c0.3,0,0.7,0,1,0c5.3,0,10.2,2,14,5.9c8.2,8.2,8.2,21.6,0,29.8C668.8,315.3,663.9,317.4,658.6,317.4z M632.4,296.5
		c3.9,2.7,7.8,5.6,12.4,9.1l2,1.5c3.6,2.8,7.5,4.4,11.2,4.6c4,0.2,7.7-1.3,10.7-4.4c6-6,6-15.7,0-21.7c-2.9-2.9-6.6-4.4-10.7-4.2
		c-3.8,0.2-7.7,1.7-11.3,4.4l-0.1,0.1c-2.8,1.9-5.3,3.9-7.8,5.7C636.7,293.4,634.6,295,632.4,296.5z"/>
</g>
</svg>
